<svg width="30" height="30" viewBox="0 0 30 30" fill="none" xmlns="http://www.w3.org/2000/svg">
<path d="M20.625 13.125V12.7137C20.625 8.87062 15.69 5.8825 15.4806 5.7575C15.1844 5.58063 14.8162 5.58063 14.52 5.7575C14.31 5.8825 9.375 8.87 9.375 12.7137V13.125H20.625ZM19.6875 14.375H10.9375C9.03875 14.375 6.875 15.9137 6.875 17.8125V26.5625C6.875 27.08 7.295 27.5 7.8125 27.5H10.9375C11.455 27.5 11.875 27.08 11.875 26.5625V23.5156C11.875 20.4737 14.1731 19.1594 14.8706 18.8325C14.955 18.7931 15.0456 18.7931 15.13 18.8325C15.8275 19.1606 18.125 20.475 18.125 23.5156V26.5625C18.125 27.08 18.545 27.5 19.0625 27.5H22.1875C22.705 27.5 23.125 27.08 23.125 26.5625V17.8125C23.125 15.9137 21.5863 14.375 19.6875 14.375ZM5.59187 8.22312L4.35875 2.98187C4.29187 2.69937 4.04 2.5 3.75 2.5C3.46 2.5 3.20812 2.69937 3.14125 2.98187L1.90812 8.22312C1.89687 8.31875 1.88625 8.41313 1.875 8.50937V26.5625C1.875 27.08 2.295 27.5 2.8125 27.5H4.6875C5.205 27.5 5.625 27.08 5.625 26.5625V8.50937C5.61375 8.41313 5.60312 8.31875 5.59187 8.22312ZM28.7169 8.22312L27.4837 2.98187C27.4169 2.69937 27.165 2.5 26.875 2.5C26.585 2.5 26.3331 2.69937 26.2663 2.98187L25.0331 8.22312C25.0219 8.31875 25.0112 8.41375 25 8.50937V26.5625C25 27.08 25.42 27.5 25.9375 27.5H27.8125C28.33 27.5 28.75 27.08 28.75 26.5625V8.50937C28.7388 8.41313 28.7281 8.31875 28.7169 8.22312Z" fill="#00725E"/>
</svg>
