<svg width="34" height="34" viewBox="0 0 34 34" fill="none" xmlns="http://www.w3.org/2000/svg">
<path fill-rule="evenodd" clip-rule="evenodd" d="M29.75 12.0417C29.7501 13.1162 29.3432 14.1508 28.6111 14.9374C27.8791 15.7239 26.8763 16.204 25.8046 16.281L23.6435 18.4415C24.2491 19.4664 24.5218 20.8264 24.6557 22.3387C24.7917 23.8751 24.7917 25.6714 24.7917 27.6002V28.3333H23.375V27.625C23.375 25.6672 23.375 23.931 23.2447 22.4641C23.1306 21.1792 22.9224 20.1783 22.5767 19.4515C21.7288 19.3382 20.9546 18.9118 20.2916 18.3862C19.5096 17.7671 18.814 16.9589 18.2417 16.1798C17.6922 15.425 17.1941 14.6341 16.7507 13.8125C15.7987 14.4713 14.5159 14.875 13.1042 14.875C10.1702 14.875 7.79167 13.1311 7.79167 10.9792C7.79167 9.00079 9.80192 7.36667 12.4065 7.11663C13.3145 5.4485 15.8206 4.25 18.7708 4.25C22.1057 4.25 24.8738 5.78213 25.4072 7.79238L25.5 7.79167C26.6272 7.79167 27.7082 8.23943 28.5052 9.03646C29.3022 9.83349 29.75 10.9145 29.75 12.0417ZM21.2691 12.4475C20.452 12.6507 19.6129 12.7523 18.7708 12.75C18.4634 12.75 18.1602 12.7373 17.8642 12.7118L17.8103 12.7883C17.8868 12.9356 17.9874 13.1261 18.1107 13.3457C18.5156 14.0745 18.967 14.7765 19.4622 15.4473V15.3439C20.2449 15.3439 21.0665 14.921 21.748 14.4174C21.8004 14.3792 21.8514 14.3409 21.9002 14.302C21.5475 13.7418 21.3313 13.1066 21.2691 12.4475ZM22.8459 15.3609C23.2065 15.6497 23.6118 15.8777 24.0458 16.036L22.19 17.8918C21.8606 17.7586 21.5199 17.5518 21.1707 17.2755C20.9202 17.0752 20.6829 16.8589 20.4602 16.6281C21.2982 16.4114 22.0398 15.963 22.5895 15.5578C22.6787 15.492 22.7644 15.4261 22.8459 15.3609Z" fill="#00725E"/>
<path d="M10.982 19.8348C11.4517 19.8344 11.9019 19.6475 12.2338 19.3151C12.5656 18.9827 12.7518 18.5322 12.7514 18.0625C12.751 17.5929 12.5641 17.1426 12.2317 16.8108C11.8994 16.4789 11.4488 16.2927 10.9792 16.2931C10.5095 16.2935 10.0592 16.4804 9.72741 16.8128C9.56311 16.9773 9.43283 17.1726 9.344 17.3876C9.25518 17.6025 9.20956 17.8328 9.20975 18.0653C9.20994 18.2979 9.25592 18.5281 9.34509 18.7429C9.43425 18.9577 9.56485 19.1528 9.72942 19.3171C10.0618 19.6489 10.5123 19.8351 10.982 19.8348ZM6.02367 22.6681C6.49332 22.6677 6.94359 22.4808 7.27542 22.1484C7.60725 21.8161 7.79346 21.3655 7.79308 20.8958C7.79271 20.4262 7.60578 19.9759 7.27342 19.6441C6.94105 19.3123 6.49049 19.126 6.02083 19.1264C5.55118 19.1268 5.10091 19.3137 4.76908 19.6461C4.43725 19.9785 4.25104 20.429 4.25142 20.8987C4.25179 21.3683 4.43872 21.8186 4.77108 22.1504C5.10344 22.4823 5.55401 22.6685 6.02367 22.6681ZM19.8348 20.8958C19.8349 21.1284 19.7893 21.3587 19.7005 21.5736C19.6117 21.7885 19.4814 21.9839 19.3171 22.1484C19.1528 22.313 18.9577 22.4436 18.7429 22.5328C18.5281 22.6219 18.2979 22.6679 18.0653 22.6681C17.5957 22.6685 17.1451 22.4823 16.8127 22.1504C16.4804 21.8186 16.2935 21.3683 16.2931 20.8987C16.2929 20.6661 16.3385 20.4358 16.4273 20.2209C16.5162 20.006 16.6464 19.8107 16.8107 19.6461C17.1426 19.3137 17.5928 19.1268 18.0625 19.1264C18.5322 19.126 18.9827 19.3123 19.3151 19.6441C19.6474 19.9759 19.8344 20.4262 19.8348 20.8958ZM10.625 20.5417C11.0007 20.5417 11.3611 20.6909 11.6267 20.9566C11.8924 21.2223 12.0417 21.5826 12.0417 21.9583V23.375H13.4583C13.8341 23.375 14.1944 23.5243 14.4601 23.7899C14.7257 24.0556 14.875 24.416 14.875 24.7917C14.875 25.1674 14.7257 25.5277 14.4601 25.7934C14.1944 26.0591 13.8341 26.2083 13.4583 26.2083H10.625C10.2493 26.2083 9.88894 26.0591 9.62327 25.7934C9.35759 25.5277 9.20833 25.1674 9.20833 24.7917V21.9583C9.20833 21.5826 9.35759 21.2223 9.62327 20.9566C9.88894 20.6909 10.2493 20.5417 10.625 20.5417ZM7.08333 24.7917C7.08333 24.416 6.93408 24.0556 6.6684 23.7899C6.40272 23.5243 6.04239 23.375 5.66667 23.375C5.29094 23.375 4.93061 23.5243 4.66493 23.7899C4.39926 24.0556 4.25 24.416 4.25 24.7917V28.3333C4.25 28.7091 4.39926 29.0694 4.66493 29.3351C4.93061 29.6008 5.29094 29.75 5.66667 29.75H8.5C8.87572 29.75 9.23606 29.6008 9.50173 29.3351C9.76741 29.0694 9.91667 28.7091 9.91667 28.3333C9.91667 27.9576 9.76741 27.5973 9.50173 27.3316C9.23606 27.0659 8.87572 26.9167 8.5 26.9167H7.08333V24.7917ZM18.4167 23.375C18.0409 23.375 17.6806 23.5243 17.4149 23.7899C17.1493 24.0556 17 24.416 17 24.7917V26.9167H15.5833C15.2076 26.9167 14.8473 27.0659 14.5816 27.3316C14.3159 27.5973 14.1667 27.9576 14.1667 28.3333C14.1667 28.7091 14.3159 29.0694 14.5816 29.3351C14.8473 29.6008 15.2076 29.75 15.5833 29.75H18.4167C18.7924 29.75 19.1527 29.6008 19.4184 29.3351C19.6841 29.0694 19.8333 28.7091 19.8333 28.3333V24.7917C19.8333 24.416 19.6841 24.0556 19.4184 23.7899C19.1527 23.5243 18.7924 23.375 18.4167 23.375Z" fill="#00725E"/>
</svg>
