<svg width="41" height="9" viewBox="0 0 41 9" fill="none" xmlns="http://www.w3.org/2000/svg">
<path d="M2.972 0.0638864C4.212 0.0638864 5.176 0.407887 5.864 1.09589C6.56 1.77589 6.908 2.75189 6.908 4.02389C6.908 5.29589 6.56 6.27589 5.864 6.96389C5.176 7.64389 4.212 7.98389 2.972 7.98389H0.176V0.0638864H2.972ZM2.972 6.89189C3.812 6.89189 4.452 6.64389 4.892 6.14789C5.34 5.64389 5.564 4.93589 5.564 4.02389C5.564 3.11189 5.34 2.40789 4.892 1.91189C4.452 1.40789 3.812 1.15589 2.972 1.15589H1.46V6.89189H2.972ZM11.2367 1.86389C11.8207 1.86389 12.3367 1.98789 12.7847 2.23589C13.2327 2.48389 13.5807 2.84389 13.8287 3.31589C14.0847 3.77989 14.2127 4.33589 14.2127 4.98389C14.2127 5.63189 14.0847 6.19189 13.8287 6.66389C13.5807 7.12789 13.2327 7.48389 12.7847 7.73189C12.3367 7.97989 11.8207 8.10389 11.2367 8.10389C10.6527 8.10389 10.1367 7.97989 9.68872 7.73189C9.24072 7.48389 8.88872 7.12789 8.63272 6.66389C8.37672 6.19189 8.24872 5.63189 8.24872 4.98389C8.24872 4.33589 8.37672 3.77989 8.63272 3.31589C8.88872 2.84389 9.24072 2.48389 9.68872 2.23589C10.1367 1.98789 10.6527 1.86389 11.2367 1.86389ZM11.2367 2.87189C10.8767 2.87189 10.5687 2.95589 10.3127 3.12389C10.0647 3.28389 9.87272 3.51989 9.73672 3.83189C9.60072 4.14389 9.53272 4.52789 9.53272 4.98389C9.53272 5.43189 9.60072 5.81589 9.73672 6.13589C9.87272 6.44789 10.0647 6.68789 10.3127 6.85589C10.5687 7.01589 10.8767 7.09589 11.2367 7.09589C11.5967 7.09589 11.9007 7.01589 12.1487 6.85589C12.3967 6.68789 12.5887 6.44789 12.7247 6.13589C12.8607 5.81589 12.9287 5.43189 12.9287 4.98389C12.9287 4.52789 12.8607 4.14389 12.7247 3.83189C12.5887 3.51989 12.3967 3.28389 12.1487 3.12389C11.9007 2.95589 11.5967 2.87189 11.2367 2.87189ZM15.828 7.98389V1.98389H16.968L17.052 3.54389L16.884 3.37589C16.996 3.03189 17.156 2.74789 17.364 2.52389C17.58 2.29189 17.832 2.12389 18.12 2.01989C18.416 1.91589 18.728 1.86389 19.056 1.86389C19.48 1.86389 19.86 1.94789 20.196 2.11589C20.54 2.27589 20.812 2.51989 21.012 2.84789C21.212 3.17589 21.312 3.59189 21.312 4.09589V7.98389H20.028V4.49189C20.028 3.89989 19.904 3.49189 19.656 3.26789C19.416 3.03589 19.112 2.91989 18.744 2.91989C18.48 2.91989 18.224 2.98389 17.976 3.11189C17.728 3.23189 17.52 3.42789 17.352 3.69989C17.192 3.97189 17.112 4.33589 17.112 4.79189V7.98389H15.828ZM26.7257 4.13189C26.7257 3.73189 26.6137 3.42389 26.3897 3.20789C26.1737 2.98389 25.8737 2.87189 25.4897 2.87189C25.1297 2.87189 24.8217 2.95589 24.5657 3.12389C24.3097 3.29189 24.1217 3.56389 24.0017 3.93989L22.9217 3.48389C23.0737 2.99589 23.3697 2.60389 23.8097 2.30789C24.2577 2.01189 24.8337 1.86389 25.5377 1.86389C26.0177 1.86389 26.4417 1.94389 26.8097 2.10389C27.1777 2.25589 27.4657 2.48789 27.6737 2.79989C27.8897 3.11189 27.9977 3.51189 27.9977 3.99989V6.67589C27.9977 6.97189 28.1457 7.11989 28.4417 7.11989C28.5857 7.11989 28.7257 7.09989 28.8617 7.05989L28.7897 7.94789C28.6057 8.03589 28.3737 8.07989 28.0937 8.07989C27.8377 8.07989 27.6057 8.03589 27.3977 7.94789C27.1977 7.85189 27.0377 7.71189 26.9177 7.52789C26.8057 7.33589 26.7497 7.09989 26.7497 6.81989V6.73589L27.0137 6.72389C26.9417 7.03589 26.7937 7.29589 26.5697 7.50389C26.3457 7.70389 26.0857 7.85589 25.7897 7.95989C25.4937 8.05589 25.1937 8.10389 24.8897 8.10389C24.5137 8.10389 24.1737 8.04389 23.8697 7.92389C23.5737 7.80389 23.3377 7.62389 23.1617 7.38389C22.9937 7.13589 22.9097 6.83189 22.9097 6.47189C22.9097 6.02389 23.0537 5.65589 23.3417 5.36789C23.6377 5.07989 24.0537 4.88389 24.5897 4.77989L26.9177 4.32389L26.9057 5.22389L25.2137 5.57189C24.8777 5.63589 24.6257 5.72789 24.4577 5.84789C24.2897 5.96789 24.2057 6.14389 24.2057 6.37589C24.2057 6.59989 24.2897 6.77989 24.4577 6.91589C24.6337 7.04389 24.8657 7.10789 25.1537 7.10789C25.3537 7.10789 25.5457 7.08389 25.7297 7.03589C25.9217 6.98789 26.0937 6.91189 26.2457 6.80789C26.3977 6.69589 26.5137 6.55589 26.5937 6.38789C26.6817 6.21189 26.7257 6.00389 26.7257 5.76389V4.13189ZM31.6191 0.219887V6.18389C31.6191 6.47989 31.6951 6.69589 31.8471 6.83189C32.0071 6.96789 32.2191 7.03589 32.4831 7.03589C32.6991 7.03589 32.8871 7.00389 33.0471 6.93989C33.2071 6.86789 33.3551 6.77189 33.4911 6.65189L33.7791 7.58789C33.5951 7.74789 33.3671 7.87589 33.0951 7.97189C32.8311 8.05989 32.5351 8.10389 32.2071 8.10389C31.8631 8.10389 31.5471 8.04789 31.2591 7.93589C30.9711 7.82389 30.7471 7.64389 30.5871 7.39589C30.4271 7.13989 30.3431 6.80789 30.3351 6.39989V0.579886L31.6191 0.219887ZM33.6831 1.98389V2.99189H29.1831V1.98389H33.6831ZM37.593 8.10389C36.993 8.10389 36.465 7.97989 36.009 7.73189C35.553 7.48389 35.197 7.12789 34.941 6.66389C34.693 6.19189 34.569 5.63189 34.569 4.98389C34.569 4.33589 34.693 3.77989 34.941 3.31589C35.197 2.84389 35.549 2.48389 35.997 2.23589C36.445 1.98789 36.953 1.86389 37.521 1.86389C38.105 1.86389 38.601 1.98389 39.009 2.22389C39.417 2.46389 39.729 2.79189 39.945 3.20789C40.161 3.62389 40.269 4.09589 40.269 4.62389C40.269 4.76789 40.265 4.90389 40.257 5.03189C40.249 5.15989 40.237 5.27189 40.221 5.36789H35.397V4.38389H39.657L39.021 4.57589C39.021 4.03189 38.885 3.61589 38.613 3.32789C38.341 3.03189 37.969 2.88389 37.497 2.88389C37.153 2.88389 36.853 2.96389 36.597 3.12389C36.341 3.28389 36.145 3.52389 36.009 3.84389C35.873 4.15589 35.805 4.53989 35.805 4.99589C35.805 5.44389 35.877 5.82389 36.021 6.13589C36.165 6.44789 36.369 6.68389 36.633 6.84389C36.897 7.00389 37.209 7.08389 37.569 7.08389C37.969 7.08389 38.293 7.00789 38.541 6.85589C38.789 6.70389 38.985 6.49189 39.129 6.21989L40.149 6.69989C40.005 6.98789 39.809 7.23989 39.561 7.45589C39.321 7.66389 39.033 7.82389 38.697 7.93589C38.361 8.04789 37.993 8.10389 37.593 8.10389Z" fill="black"/>
</svg>
