<svg width="34" height="28" viewBox="0 0 34 28" fill="none" xmlns="http://www.w3.org/2000/svg">
<path d="M33.2 0.799999V7.04H31.28C29.7333 7.04 28.5067 7.28 27.6 7.76C26.6933 8.24 26.0267 9.06666 25.6 10.24C25.1733 11.36 24.96 12.88 24.96 14.8V20.72L22.64 16.24C23.0133 15.9733 23.5467 15.76 24.24 15.6C24.9333 15.3867 25.6533 15.28 26.4 15.28C28.16 15.28 29.6267 15.84 30.8 16.96C31.9733 18.0267 32.56 19.52 32.56 21.44C32.56 23.2533 32 24.8 30.88 26.08C29.76 27.3067 28.16 27.92 26.08 27.92C24.7467 27.92 23.4933 27.6267 22.32 27.04C21.2 26.4 20.2933 25.3333 19.6 23.84C18.9067 22.2933 18.56 20.1867 18.56 17.52V16.16C18.56 12.3733 19.0667 9.36 20.08 7.12C21.1467 4.88 22.6667 3.28 24.64 2.32C26.6133 1.30667 29.0133 0.799999 31.84 0.799999H33.2ZM15.52 0.799999V7.04H13.6C12.0533 7.04 10.8267 7.28 9.92 7.76C9.01333 8.24 8.34667 9.06666 7.92 10.24C7.49333 11.36 7.28 12.88 7.28 14.8V20.72L4.96 16.24C5.33333 15.9733 5.86667 15.76 6.56 15.6C7.25333 15.3867 7.97333 15.28 8.72 15.28C10.48 15.28 11.9467 15.84 13.12 16.96C14.2933 18.0267 14.88 19.52 14.88 21.44C14.88 23.2533 14.32 24.8 13.2 26.08C12.08 27.3067 10.48 27.92 8.4 27.92C7.06667 27.92 5.81333 27.6267 4.64 27.04C3.52 26.4 2.61333 25.3333 1.92 23.84C1.22667 22.2933 0.88 20.1867 0.88 17.52L0.88 16.16C0.88 12.3733 1.38667 9.36 2.4 7.12C3.46667 4.88 4.98667 3.28 6.96 2.32C8.93333 1.30667 11.3333 0.799999 14.16 0.799999H15.52Z" fill="#00725E"/>
</svg>
