<svg width="30" height="30" viewBox="0 0 30 30" fill="none" xmlns="http://www.w3.org/2000/svg">
<path d="M12.8125 1.25C10.9175 1.25 9.375 2.7925 9.375 4.6875V6.25H5.3125C3.41375 6.25 1.875 7.78875 1.875 9.6875V25.3125C1.875 27.2113 3.41375 28.75 5.3125 28.75H12.8125C13.33 28.75 13.75 28.33 13.75 27.8125V23.75C13.75 23.405 14.03 23.125 14.375 23.125H15.625C15.97 23.125 16.25 23.405 16.25 23.75V27.8125C16.25 28.33 16.67 28.75 17.1875 28.75H24.6875C26.5863 28.75 28.125 27.2113 28.125 25.3125V9.6875C28.125 7.78875 26.5863 6.25 24.6875 6.25H20.625V4.6875C20.625 2.7925 19.0825 1.25 17.1875 1.25H12.8125ZM12.5 3.125H12.8125H17.1875H17.5C18.1906 3.125 18.75 3.68438 18.75 4.375V4.6875V7.1875V9.375C18.75 10.0656 18.1906 10.625 17.5 10.625H12.5C11.8094 10.625 11.25 10.0656 11.25 9.375V7.1875V4.6875V4.375C11.25 3.68438 11.8094 3.125 12.5 3.125ZM15 4.375C14.4825 4.375 14.0625 4.795 14.0625 5.3125V5.9375H13.4375C12.92 5.9375 12.5 6.3575 12.5 6.875C12.5 7.3925 12.92 7.8125 13.4375 7.8125H14.0625V8.4375C14.0625 8.955 14.4825 9.375 15 9.375C15.5175 9.375 15.9375 8.955 15.9375 8.4375V7.8125H16.5625C17.08 7.8125 17.5 7.3925 17.5 6.875C17.5 6.3575 17.08 5.9375 16.5625 5.9375H15.9375V5.3125C15.9375 4.795 15.5175 4.375 15 4.375ZM6.875 13.75H8.125C8.47 13.75 8.75 14.03 8.75 14.375V15.625C8.75 15.97 8.47 16.25 8.125 16.25H6.875C6.53 16.25 6.25 15.97 6.25 15.625V14.375C6.25 14.03 6.53 13.75 6.875 13.75ZM11.875 13.75H13.125C13.47 13.75 13.75 14.03 13.75 14.375V15.625C13.75 15.97 13.47 16.25 13.125 16.25H11.875C11.53 16.25 11.25 15.97 11.25 15.625V14.375C11.25 14.03 11.53 13.75 11.875 13.75ZM16.875 13.75H18.125C18.47 13.75 18.75 14.03 18.75 14.375V15.625C18.75 15.97 18.47 16.25 18.125 16.25H16.875C16.53 16.25 16.25 15.97 16.25 15.625V14.375C16.25 14.03 16.53 13.75 16.875 13.75ZM21.875 13.75H23.125C23.47 13.75 23.75 14.03 23.75 14.375V15.625C23.75 15.97 23.47 16.25 23.125 16.25H21.875C21.53 16.25 21.25 15.97 21.25 15.625V14.375C21.25 14.03 21.53 13.75 21.875 13.75ZM6.875 17.5H8.125C8.47 17.5 8.75 17.78 8.75 18.125V19.375C8.75 19.72 8.47 20 8.125 20H6.875C6.53 20 6.25 19.72 6.25 19.375V18.125C6.25 17.78 6.53 17.5 6.875 17.5ZM11.875 17.5H13.125C13.47 17.5 13.75 17.78 13.75 18.125V19.375C13.75 19.72 13.47 20 13.125 20H11.875C11.53 20 11.25 19.72 11.25 19.375V18.125C11.25 17.78 11.53 17.5 11.875 17.5ZM16.875 17.5H18.125C18.47 17.5 18.75 17.78 18.75 18.125V19.375C18.75 19.72 18.47 20 18.125 20H16.875C16.53 20 16.25 19.72 16.25 19.375V18.125C16.25 17.78 16.53 17.5 16.875 17.5ZM21.875 17.5H23.125C23.47 17.5 23.75 17.78 23.75 18.125V19.375C23.75 19.72 23.47 20 23.125 20H21.875C21.53 20 21.25 19.72 21.25 19.375V18.125C21.25 17.78 21.53 17.5 21.875 17.5ZM6.875 21.25H8.125C8.47 21.25 8.75 21.53 8.75 21.875V23.125C8.75 23.47 8.47 23.75 8.125 23.75H6.875C6.53 23.75 6.25 23.47 6.25 23.125V21.875C6.25 21.53 6.53 21.25 6.875 21.25ZM21.875 21.25H23.125C23.47 21.25 23.75 21.53 23.75 21.875V23.125C23.75 23.47 23.47 23.75 23.125 23.75H21.875C21.53 23.75 21.25 23.47 21.25 23.125V21.875C21.25 21.53 21.53 21.25 21.875 21.25Z" fill="#00725E"/>
</svg>
