<svg width="18" height="22" viewBox="0 0 18 22" fill="none" xmlns="http://www.w3.org/2000/svg">
<path fill-rule="evenodd" clip-rule="evenodd" d="M10.803 4.41252C10.803 2.49709 12.303 0.942881 14.151 0.942881C14.5897 0.941786 15.0244 1.03066 15.4302 1.20444C15.8359 1.37821 16.2048 1.63348 16.5158 1.95566C16.8268 2.27785 17.0738 2.66064 17.2426 3.08219C17.4115 3.50374 17.499 3.95578 17.5 4.41252C17.5 6.32899 16 7.8832 14.151 7.8832C13.7076 7.88376 13.2685 7.79258 12.8592 7.61494C12.45 7.43731 12.0787 7.17676 11.767 6.84845L7.132 10.1338C7.26108 10.8032 7.19778 11.4973 6.95 12.1294L12.032 15.6063C12.6306 15.0982 13.3796 14.8212 14.152 14.8225C14.5907 14.8215 15.0254 14.9105 15.4311 15.0844C15.8368 15.2583 16.2056 15.5137 16.5165 15.836C16.8274 16.1583 17.0743 16.5411 17.243 16.9627C17.4118 17.3843 17.4991 17.8364 17.5 18.2931C17.5 20.2086 16 21.7628 14.151 21.7628C13.2651 21.7647 12.4147 21.4003 11.7869 20.7496C11.159 20.099 10.8051 19.2154 10.803 18.2931C10.8022 17.8066 10.9007 17.3255 11.092 16.8816L6.05 13.4348C5.43941 13.9875 4.65712 14.2911 3.848 14.2895C3.40922 14.2906 2.97453 14.2017 2.56877 14.0278C2.16301 13.854 1.79413 13.5986 1.48321 13.2763C1.17229 12.954 0.925431 12.571 0.756728 12.1494C0.588024 11.7277 0.500787 11.2756 0.5 10.8188C0.500918 10.3621 0.588253 9.9101 0.757015 9.48855C0.925777 9.06701 1.17266 8.68421 1.48356 8.36201C1.79447 8.03981 2.1633 7.78453 2.569 7.61074C2.97469 7.43695 3.4093 7.34807 3.848 7.34917C4.912 7.34917 5.858 7.86238 6.471 8.66186L10.964 5.47746C10.8571 5.13344 10.8028 4.77408 10.803 4.41252Z" fill="#00725E"/>
</svg>
