<svg width="30" height="30" viewBox="0 0 30 30" fill="none" xmlns="http://www.w3.org/2000/svg">
<path d="M13.2227 5.64819C11.7664 5.64819 10.5 7.02766 10.5 8.8208C10.5 9.69857 10.8196 10.5342 11.3516 11.1218L11.3115 11.0742L14.4629 15.116C14.5328 15.2056 14.6163 15.2768 14.7085 15.3254C14.8008 15.374 14.8999 15.3991 15 15.3991C15.1001 15.3991 15.1992 15.374 15.2915 15.3254C15.3837 15.2768 15.4672 15.2056 15.5371 15.116L18.6914 11.0718L18.6504 11.1194C19.1808 10.5331 19.5 9.69823 19.5 8.8208C19.5 7.02732 18.2333 5.64941 16.7773 5.64941C16.1062 5.64941 15.5003 6.00619 15 6.53442C14.4997 6.00607 13.8939 5.64819 13.2227 5.64819ZM4.9248 8.125C4.4318 8.125 4 8.68915 4 9.25415C4 10.0554 4.17778 13.1551 4.23828 14.1382C4.47528 17.9944 5.03777 19.5177 5.78027 20.2014C6.80277 21.1427 7.44091 21.9784 8.08691 22.6697C8.82891 23.2484 9 24.84 9 25.3125C9 25.8306 9.336 26.25 9.75 26.25H13.75C14.164 26.25 14.5 25.83 14.5 25.3125V20.5164C14.5 19.2932 13.9961 18.1361 13.1436 17.5342C13.1001 17.5029 13.0599 17.4767 13.0234 17.4548C12.5039 17.1461 11.9668 16.8274 11.1973 15.8655L9.7002 14.1602C9.1952 13.612 8.41406 13.6792 7.97656 14.3555C7.60056 14.9367 7.66255 15.792 8.06055 16.3501L9.7793 18.7488C10.0093 19.0707 9.98602 19.5654 9.72852 19.8523C9.60952 19.9854 9.46198 20.05 9.31348 20.05C9.14148 20.05 8.96968 19.9619 8.84668 19.7888L7.08496 17.3303C6.19546 16.0828 6.27517 14.1529 7.26367 13.0286C7.30467 12.9823 7.35153 12.949 7.39453 12.9065C7.12653 12.0465 6.83437 11.0451 6.52637 10.0745C6.07687 8.65759 5.6743 8.125 4.9248 8.125ZM25.0752 8.125C24.3257 8.125 23.9231 8.65759 23.4736 10.0745C23.1656 11.0451 22.8735 12.0465 22.6055 12.9065C22.6485 12.949 22.6953 12.9823 22.7363 13.0286C23.7248 14.1529 23.8045 16.0828 22.915 17.3303L21.1533 19.7888C21.0303 19.9619 20.8585 20.05 20.6865 20.05C20.538 20.05 20.3905 19.9854 20.2715 19.8523C20.014 19.5654 19.9907 19.0707 20.2207 18.7488L21.9395 16.3501C22.3375 15.792 22.3994 14.9367 22.0234 14.3555C21.5859 13.6792 20.8048 13.612 20.2998 14.1602L18.8027 15.8655C18.0332 16.8274 17.4961 17.1461 16.9766 17.4548C16.9401 17.4767 16.8999 17.5029 16.8564 17.5342C16.0039 18.1361 15.5 19.2932 15.5 20.5164V25.3125C15.5 25.83 15.836 26.25 16.25 26.25H20.25C20.664 26.25 21 25.8306 21 25.3125C21 24.84 21.1711 23.2484 21.9131 22.6697C22.5591 21.9784 23.1972 21.1427 24.2197 20.2014C24.9622 19.5177 25.5247 17.9944 25.7617 14.1382C25.8222 13.1551 26 10.0554 26 9.25415C26 8.68915 25.5682 8.125 25.0752 8.125Z" fill="#00725E"/>
</svg>
