<svg width="30" height="30" viewBox="0 0 30 30" fill="none" xmlns="http://www.w3.org/2000/svg">
<path d="M27.1044 13.7531C26.4631 13.7531 25.7594 14.175 24.2631 14.9513C23.0237 15.595 21.8775 16.2069 21.1494 16.6531C21.2125 16.9269 21.25 17.2106 21.25 17.5031C21.25 19.5712 19.5675 21.2531 17.5 21.2531H12.8125C12.295 21.2531 11.875 20.8338 11.875 20.3156C11.875 19.7975 12.295 19.3781 12.8125 19.3781H17.5C18.5337 19.3781 19.375 18.5369 19.375 17.5031C19.375 16.9425 19.1225 16.4444 18.7312 16.1C18.2869 15.8063 17.7594 15.6281 17.1875 15.6281H14.4419H14.0625C14.0444 15.6281 14.0275 15.6238 14.0094 15.6225C12.3619 15.5969 11.5706 15.4269 10.875 15.2737C10.2425 15.1344 9.64499 15.0031 8.64187 15.0031C4.05937 15.0031 1.44312 20.6287 1.33437 20.8681C1.19312 21.1781 1.23124 21.5394 1.43312 21.8131L5.80812 27.7469C5.98624 27.9888 6.26687 28.125 6.56062 28.125C6.61999 28.125 6.67874 28.1194 6.73812 28.1081C7.09187 28.0406 7.37812 27.7731 7.46999 27.425C7.51937 27.2406 7.99687 25.6281 9.68749 25.6281C10.9075 25.6281 12.1694 25.7856 13.39 25.9375C14.6331 26.0931 15.9194 26.2531 17.1875 26.2531C18.9144 26.2531 20.1575 24.9288 23.75 21.2531C28.3137 16.5838 28.75 16.1756 28.75 15.25C28.75 14.4487 28.0469 13.7531 27.1044 13.7531ZM23.125 5.625C23.125 6.95625 22.2937 8.0875 21.125 8.54375C20.6812 6.53125 19.0937 4.94375 17.0812 4.5C17.5375 3.33125 18.6687 2.5 20 2.5C21.725 2.5 23.125 3.9 23.125 5.625ZM15.9375 5.625C14.8601 5.625 13.8267 6.05301 13.0649 6.81488C12.303 7.57675 11.875 8.61006 11.875 9.6875C11.875 10.7649 12.303 11.7983 13.0649 12.5601C13.8267 13.322 14.8601 13.75 15.9375 13.75C17.0149 13.75 18.0482 13.322 18.8101 12.5601C19.572 11.7983 20 10.7649 20 9.6875C20 8.61006 19.572 7.57675 18.8101 6.81488C18.0482 6.05301 17.0149 5.625 15.9375 5.625Z" fill="#00725E"/>
</svg>
